<?xml version="1.0" standalone="no"?>
<!DOCTYPE svg PUBLIC "-//W3C//DTD SVG 20010904//EN"
 "http://www.w3.org/TR/2001/REC-SVG-20010904/DTD/svg10.dtd">
<svg version="1.0" xmlns="http://www.w3.org/2000/svg"
 width="1610.000000pt" height="780.000000pt" viewBox="0 0 1610.000000 780.000000"
 preserveAspectRatio="xMidYMid meet">
<metadata>
Created by potrace 1.15, written by Peter Selinger 2001-2017
</metadata>
<g transform="translate(0.000000,780.000000) scale(0.100000,-0.100000)"
fill="#000000" stroke="none">
<path d="M4023 7793 c2215 -2 5839 -2 8055 0 2215 1 402 2 -4028 2 -4430 0
-6243 -1 -4027 -2z"/>
<path d="M328 7761 c-126 -41 -225 -127 -286 -250 l-37 -75 0 -135 c0 -127 2
-140 27 -193 15 -32 433 -763 929 -1625 819 -1422 901 -1569 892 -1592 -5 -14
-418 -741 -917 -1616 -559 -979 -913 -1611 -922 -1644 -12 -38 -15 -84 -13
-165 4 -106 6 -116 41 -187 70 -141 207 -244 358 -268 89 -15 15208 -15 15300
-1 150 24 289 128 358 270 35 72 37 81 40 196 4 110 2 126 -21 182 -13 34
-430 773 -927 1643 -496 870 -905 1590 -907 1600 -3 11 328 596 896 1582 496
861 913 1591 929 1623 25 55 27 68 27 195 l0 135 -37 75 c-61 124 -160 210
-287 249 -62 20 -137 20 -7725 19 -7385 0 -7663 -1 -7718 -18z m15302 -465 c0
-2 -435 -760 -967 -1683 -584 -1012 -967 -1688 -967 -1703 0 -15 400 -727 967
-1720 l966 -1695 -3789 -3 c-2085 -1 -5495 -1 -7580 0 l-3789 3 961 1685 c528
927 965 1697 971 1711 10 25 -67 161 -959 1709 -533 926 -970 1687 -972 1692
-2 4 3408 8 7577 8 4170 0 7581 -2 7581 -4z"/>
<path d="M1333 6798 c3 -7 377 -659 831 -1448 684 -1186 826 -1438 818 -1455
-5 -11 -377 -664 -826 -1452 -449 -787 -819 -1439 -822 -1447 -6 -15 59 -16
686 -14 l692 3 142 242 c364 624 413 709 418 723 6 17 526 916 610 1055 30 50
96 164 148 255 51 91 153 270 227 398 73 129 133 238 133 243 0 10 -1067 1861
-1115 1934 -38 58 -246 417 -277 478 -12 23 -80 144 -152 270 l-130 227 -694
0 c-551 0 -693 -3 -689 -12z"/>
<path d="M13110 6334 c-151 -262 -277 -481 -279 -488 -2 -6 -255 -446 -562
-978 -308 -532 -559 -970 -559 -973 0 -3 58 -105 128 -228 71 -122 173 -301
227 -397 54 -96 131 -229 171 -295 100 -167 594 -1023 594 -1030 0 -7 260
-457 274 -474 6 -8 72 -120 147 -250 l137 -236 692 -3 c646 -2 692 -1 686 15
-4 9 -378 668 -832 1464 -759 1330 -824 1450 -813 1471 6 13 380 663 830 1445
451 783 819 1425 819 1428 0 3 -312 5 -693 5 l-692 0 -275 -476z"/>
<path d="M6995 5709 l-1040 -608 -3 -506 c-1 -279 1 -504 5 -502 49 29 2054
1187 2071 1196 21 11 113 -40 1058 -584 570 -328 1042 -599 1050 -602 12 -4
14 69 12 497 l-3 503 -1020 589 c-561 324 -1036 597 -1055 607 l-35 18 -1040
-608z"/>
<path d="M5950 3189 l1 -504 1055 -608 1056 -609 881 515 c485 284 954 557
1042 609 l160 94 3 503 c1 282 -2 501 -7 499 -4 -1 -475 -272 -1045 -602 -940
-542 -1039 -598 -1061 -588 -13 6 -481 275 -1040 597 -559 322 -1023 589
-1031 592 -12 4 -14 -64 -14 -498z"/>
<path d="M6329 1398 c-24 -40 -87 -149 -141 -243 l-98 -170 491 -3 c270 -1
710 -1 977 0 l487 3 -415 240 -415 240 -422 3 -422 3 -42 -73z"/>
<path d="M8899 1462 c-8 -4 -196 -113 -417 -242 l-402 -235 479 -3 c264 -1
698 -1 965 0 l486 3 -139 240 -139 240 -408 2 c-225 1 -416 -1 -425 -5z"/>
</g>
</svg>
